<svg xmlns="http://www.w3.org/2000/svg" viewBox="0 0 106 94.23"><title>d3-sandbox</title><g><path d="M30,19.77H35.5a32.23,32.23,0,0,1,0,64.45H30V70.06H35.5a18.06,18.06,0,1,0,0-36.12H30Zm25.67,0H78.35A19.65,19.65,0,0,1,93.45,52,19.65,19.65,0,0,1,78.35,84.23H55.68A38,38,0,0,0,69,70.06h9.39a5.49,5.49,0,0,0,0-11H72.86a38,38,0,0,0,0-14.16h5.49a5.49,5.49,0,0,0,0-11H69A38,38,0,0,0,55.68,19.77Z" transform="translate(-11 -19.77)"/><polygon points="53 94.22 106 52.23 68 36.23 94 52.23 53 79.22 12 52.23 38 36.23 0 52.23 53 94.22"/></g></svg>
